<svg width="126" height="126" viewBox="0 0 126 126" fill="none" xmlns="http://www.w3.org/2000/svg">
<path d="M123.624 57.3871L68.6111 2.3762C65.4448 -0.792067 60.3064 -0.792067 57.1362 2.3762L45.7125 13.8001L60.204 28.2918C63.5716 27.1539 67.4333 27.9173 70.1177 30.6017C72.8148 33.3034 73.5728 37.1981 72.4073 40.5766L86.3732 54.5431C89.752 53.3791 93.6507 54.1322 96.3493 56.8353C100.121 60.6055 100.121 66.7161 96.3493 70.4888C92.5767 74.262 86.4662 74.262 82.6916 70.4888C79.8546 67.6489 79.1537 63.4824 80.59 59.9873L67.5657 46.9628L67.5642 81.2379C68.5083 81.7048 69.3707 82.3214 70.1177 83.064C73.8893 86.8342 73.8893 92.9453 70.1177 96.7209C66.345 100.492 60.2316 100.492 56.4644 96.7209C52.6927 92.9453 52.6927 86.8347 56.4644 83.0645C57.3682 82.1601 58.4424 81.444 59.6247 80.9574V46.3628C58.4406 45.8795 57.3659 45.1629 56.4644 44.2557C53.6067 41.402 52.9196 37.209 54.3839 33.7001L40.0986 19.4131L2.37727 57.1326C-0.792423 60.3038 -0.792423 65.4428 2.37727 68.6116L57.3911 123.623C60.5584 126.792 65.6958 126.792 68.867 123.623L123.623 68.867C126.792 65.6973 126.793 60.5553 123.624 57.3871Z" fill="#DE4C36"/>
</svg>
