<svg width="173" height="107" viewBox="0 0 173 107" fill="none" xmlns="http://www.w3.org/2000/svg">
<path d="M144.763 33.3943C144.493 27.4214 145.303 22.1271 142.603 17.6474C136.122 6.51596 119.919 0 87.5125 0C55.1064 0 38.0932 6.51597 31.612 17.7832C29.0465 22.3986 29.3165 27.5571 28.9115 33.5301C28.6414 38.2813 26.481 43.304 27.4262 48.734C28.5064 55.7929 28.9115 62.8519 29.9917 69.3679C30.8018 74.6621 38.0932 79.1418 38.7683 84.1645C40.6587 98.011 54.9714 104.391 87.3775 104.391V105.477H86.5673H87.5125V104.391C119.919 104.391 133.691 98.011 135.446 84.1645C136.122 79.0061 142.873 74.6621 143.683 69.3679C144.763 62.8519 145.168 55.7929 146.249 48.734C147.194 43.304 145.033 38.1455 144.763 33.3943Z" fill="#EFCCA3"/>
<path d="M86.9728 38.2812C92.7789 38.417 96.8297 42.0822 100.61 45.476C105.066 49.4127 112.628 52.1277 115.733 55.5214C118.839 58.9151 122.89 62.3089 124.375 67.6031C125.86 72.8973 126.265 79.6848 126.265 81.4495C126.265 83.2143 127.21 82.807 129.911 81.4495C136.257 78.3273 143.278 69.9108 143.278 69.9108C142.468 75.205 135.582 79.9563 134.907 84.979C133.287 98.8254 119.919 105.477 86.8378 105.477H86.7028H87.5129" fill="#CCAC8D"/>
<path d="M108.307 27.6928C109.522 31.9011 113.843 46.1547 105.471 41.4035C105.471 41.4035 108.982 43.4397 111.142 51.1775C113.438 58.9152 118.974 59.8654 118.974 59.8654C118.974 59.8654 128.02 61.6301 134.772 55.7929C140.443 50.906 141.388 42.218 138.957 35.5663C136.527 29.0503 132.206 27.0141 125.86 25.6566C119.514 24.1634 106.821 22.9416 108.307 27.6928Z" fill="#CCAC8D"/>
<path d="M124.375 55.1142C130.937 55.1142 136.257 49.7658 136.257 43.1682C136.257 36.5707 130.937 31.2223 124.375 31.2223C117.812 31.2223 112.492 36.5707 112.492 43.1682C112.492 49.7658 117.812 55.1142 124.375 55.1142Z" fill="black"/>
<path d="M121.269 40.9962C122.984 40.9962 124.375 39.5983 124.375 37.8739C124.375 36.1496 122.984 34.7517 121.269 34.7517C119.554 34.7517 118.163 36.1496 118.163 37.8739C118.163 39.5983 119.554 40.9962 121.269 40.9962Z" fill="white"/>
<path d="M106.281 42.6254C106.281 42.6254 116.948 49.9558 122.754 57.1505C128.56 64.3452 128.425 65.7027 128.425 65.7027L124.24 67.6032C124.24 67.6032 118.298 56.336 111.007 52.1278C103.581 47.9196 102.771 44.3901 102.771 44.3901L106.281 42.6254Z" fill="#EFCCA3"/>
<path d="M87.3777 38.2812C81.5716 38.417 77.2508 42.0822 73.3351 45.476C68.8792 49.4127 61.0478 52.1277 57.9422 55.5214C54.8366 58.9151 50.6508 62.3089 49.1655 67.6031C47.6803 72.8973 47.1402 79.6848 47.1402 81.4495C47.1402 83.2143 47.4102 83.35 43.4945 81.4495C37.1483 78.463 30.127 69.9108 30.127 69.9108C30.9371 75.205 37.8234 79.9563 38.4985 84.979C40.3889 98.8254 53.7564 105.477 86.8376 105.477H87.5127" fill="#CCAC8D"/>
<path d="M118.703 61.2229C112.222 53.2136 101.825 45.7474 87.3775 45.7474H87.2425C72.7948 45.7474 62.3979 53.2136 55.9166 61.2229C49.1654 69.5036 49.7055 72.7615 49.7055 80.635C49.7055 109.142 59.6973 100.997 66.3136 104.527C73.0649 107.921 80.0862 106.835 87.2425 106.835H87.3775C94.6689 106.835 101.555 107.785 108.306 104.391C114.923 100.997 124.915 109.414 124.915 80.9065C125.05 73.033 125.455 69.5036 118.703 61.2229Z" fill="#56332B"/>
<path d="M86.7024 52.8064C86.7024 52.8064 85.7572 65.9741 83.8668 68.5533L87.3775 67.7388L86.7024 52.8064Z" fill="#442823"/>
<path d="M87.6478 52.8064C87.6478 52.8064 88.593 65.9741 90.4833 68.5533L86.9727 67.7388L87.6478 52.8064Z" fill="#442823"/>
<path d="M76.3054 49.6841C74.9551 46.5619 79.816 41.5392 87.5125 41.4034C95.2089 41.4034 100.07 46.4262 98.7196 49.6841C97.3693 52.9421 92.5084 53.8924 87.5125 54.0281C82.6516 53.8924 77.6556 52.9421 76.3054 49.6841Z" fill="#56332B"/>
<path d="M87.5129 52.8065C87.5129 52.2635 92.1038 52.1277 94.5342 50.4987C94.5342 50.4987 89.5383 52.1277 88.4581 51.449C87.3779 50.906 87.1078 49.277 87.1078 49.277C87.1078 49.277 86.7028 50.906 85.8926 51.449C84.9474 51.992 79.2764 50.4987 79.2764 50.4987C79.2764 50.4987 86.8378 52.3992 86.8378 52.8065C86.8378 53.2137 86.7028 54.5712 86.7028 55.5214C86.7028 58.9152 86.7028 67.3316 87.2429 68.0104C88.053 69.2321 87.783 58.9152 87.783 55.5214C87.6479 54.4354 87.6479 53.3495 87.5129 52.8065Z" fill="black"/>
<path d="M87.7829 70.9968C90.0783 70.9968 94.1291 72.6258 97.7748 75.205C94.2641 71.2683 90.0783 68.5533 87.7829 68.5533C85.3525 68.5533 80.2215 71.5398 76.5758 75.8838C80.3565 72.8973 85.2174 70.9968 87.7829 70.9968Z" fill="#7F4A41"/>
<path d="M86.8373 95.0245C81.7063 95.0245 76.7104 93.3955 72.1195 92.1737C71.1744 91.9022 70.2292 92.581 69.284 92.3095C60.7774 89.5945 53.8911 84.979 49.7053 79.1418V80.4993C49.7053 109.007 59.6972 100.997 66.3134 104.391C73.0647 107.785 80.086 106.699 87.2424 106.699H87.3774C94.6688 106.699 101.555 107.649 108.306 104.255C114.923 100.862 124.914 109.142 124.914 80.635C124.914 79.549 124.914 78.4631 125.049 77.5128C121.134 83.893 113.977 88.9158 105.066 91.9022C104.256 92.1737 102.365 91.495 101.555 91.6307C96.6942 93.2597 92.3733 95.0245 86.8373 95.0245Z" fill="#442823"/>
<path d="M74.0102 79.6848C74.0102 79.6848 70.6346 89.866 72.93 94.3457L69.8245 92.9882C69.8245 92.9882 72.1199 82.6713 74.0102 79.6848ZM100.745 79.6848C100.745 79.6848 104.121 89.866 101.825 94.3457L104.931 92.9882C104.931 92.9882 102.501 82.6713 100.745 79.6848Z" fill="#442823"/>
<path d="M65.3685 27.6928C64.1532 31.9011 59.8324 46.1547 68.204 41.4035C68.204 41.4035 64.6933 43.4397 62.5329 51.1775C60.3725 58.9152 54.7015 59.8654 54.7015 59.8654C54.7015 59.8654 45.6547 61.6301 38.9035 55.7929C33.2324 50.906 32.2872 42.218 34.7177 35.5663C37.1481 28.9146 41.469 27.0141 47.8152 25.6566C54.1613 24.1634 66.7187 22.9416 65.3685 27.6928Z" fill="#CCAC8D"/>
<path d="M87.3777 68.5533C91.0234 68.5533 102.366 76.4267 102.501 86.0649V85.5219C102.501 75.4765 93.3188 67.4673 87.3777 67.4673C81.4366 67.4673 72.2549 75.6122 72.2549 85.5219V86.0649C72.3899 76.4267 83.732 68.5533 87.3777 68.5533Z" fill="black"/>
<path d="M90.3251 49.7581C90.9028 49.6082 91.1446 48.604 90.8652 47.5151C90.5858 46.4262 89.891 45.6649 89.3133 45.8147C88.7356 45.9645 88.4938 46.9687 88.7733 48.0576C89.0527 49.1466 89.7475 49.9079 90.3251 49.7581Z" fill="#331712"/>
<path d="M83.385 49.7379C83.9548 49.9156 84.6853 49.1889 85.0168 48.1148C85.3482 47.0408 85.155 46.026 84.5852 45.8483C84.0154 45.6706 83.2848 46.3972 82.9534 47.4713C82.6219 48.5454 82.8152 49.5602 83.385 49.7379Z" fill="#331712"/>
<path d="M49.9756 55.1142C56.538 55.1142 61.8579 49.7658 61.8579 43.1682C61.8579 36.5707 56.538 31.2223 49.9756 31.2223C43.4132 31.2223 38.0934 36.5707 38.0934 43.1682C38.0934 49.7658 43.4132 55.1142 49.9756 55.1142Z" fill="black"/>
<path d="M53.0813 40.9962C54.7965 40.9962 56.1869 39.5983 56.1869 37.8739C56.1869 36.1496 54.7965 34.7517 53.0813 34.7517C51.3661 34.7517 49.9757 36.1496 49.9757 37.8739C49.9757 39.5983 51.3661 40.9962 53.0813 40.9962Z" fill="white"/>
<path d="M90.8882 43.304C90.8882 43.1683 87.7826 44.6615 86.9725 44.7972C86.1623 44.6615 83.0568 43.1683 83.0568 43.304H90.8882Z" fill="#7F4A41"/>
<path d="M67.2588 42.6254C67.2588 42.6254 56.5918 49.9558 50.7857 57.1505C44.9796 64.3452 45.1146 65.7027 45.1146 65.7027L49.3004 67.6032C49.3004 67.6032 55.2416 56.336 62.5329 52.1278C69.8243 47.9196 70.7695 44.3901 70.7695 44.3901L67.2588 42.6254Z" fill="#EFCCA3"/>
<path d="M43.8993 20.9054C43.8993 20.9054 40.2536 30.9508 32.1521 35.1591C32.1521 35.1591 44.8445 33.6658 43.8993 20.9054ZM129.1 20.9054C129.1 20.9054 132.746 30.9508 140.848 35.1591C140.848 35.1591 128.155 33.6658 129.1 20.9054ZM106.011 39.6388C106.011 39.6388 98.0445 31.2223 87.3775 30.9508H87.5125H87.6475C76.8455 31.2223 69.014 39.6388 69.014 39.6388C78.3308 33.1228 86.2973 33.2586 87.6475 33.2586C87.5125 33.2586 96.6942 33.1228 106.011 39.6388ZM96.6942 21.9914C96.6942 21.9914 92.6435 16.2899 87.2425 16.1542H87.5125C83.4618 16.2899 78.1958 21.9914 78.1958 21.9914C82.7866 17.5117 87.5125 17.6474 87.5125 17.6474C87.5125 17.6474 91.9684 17.5117 96.6942 21.9914ZM49.9755 63.6664C49.9755 63.6664 43.6293 66.7886 39.0384 64.8881H38.9034C34.8526 62.5804 32.8272 55.6572 32.8272 55.6572C32.8272 55.6572 36.878 67.8746 49.9755 63.6664ZM123.969 63.6664C123.969 63.6664 130.316 66.7886 134.906 64.8881C140.307 62.5804 141.118 55.6572 141.118 55.6572C141.118 55.6572 137.067 67.8746 123.969 63.6664Z" fill="#CCAC8D"/>
<path d="M57.267 20.2267C60.7776 19.548 66.5837 19.4122 71.1746 20.9054C76.9807 22.9417 72.2548 30.4079 73.47 30.8151C74.6852 31.2224 76.3055 25.6567 87.1076 26.1997C98.0446 26.7427 99.2599 31.6296 100.745 30.8151C102.23 30.0006 99.2599 17.2402 115.598 20.2267C115.598 20.2267 98.4497 15.6112 99.2599 28.1002C99.2599 28.1002 89.403 20.4982 75.6304 27.2857C75.7655 27.2857 79.2761 15.6112 57.267 20.2267ZM117.083 20.2267C117.353 20.2267 117.488 20.3624 117.623 20.3624C117.758 20.3624 117.488 20.2267 117.083 20.2267ZM52.5411 3.52954C52.5411 3.52954 37.9584 21.9914 35.7979 29.0504C33.6375 36.2451 32.0172 65.7027 30.1269 69.9109L23.3756 40.8606L35.7979 10.5885L52.5411 3.52954ZM121.134 3.52954C121.134 3.52954 135.717 21.9914 137.877 29.0504C140.038 36.2451 141.658 65.7027 143.548 69.9109L150.299 40.8606L137.877 10.5885L121.134 3.52954Z" fill="#CCAC8D"/>
<path d="M120.459 3.52943C120.459 3.52943 136.122 16.6971 140.713 31.901C145.304 47.1049 143.413 65.5668 146.924 67.8746C151.92 71.1326 157.591 51.7204 159.481 49.6842C162.452 46.4262 172.309 38.1455 172.984 36.6522C173.659 35.159 153 12.4889 143.953 8.00916C133.016 2.85069 119.514 2.44344 120.459 3.52943Z" fill="#56332B"/>
<path d="M133.827 11.6744C133.827 11.6744 152.325 35.4306 152.055 65.0239L159.481 49.82C159.346 49.82 152.865 30.4078 133.827 11.6744Z" fill="#442823"/>
<path d="M52.541 3.52943C52.541 3.52943 36.8781 16.6971 32.2872 31.901C27.6964 47.1049 29.5867 65.5668 26.0761 67.8746C21.0801 71.1326 15.409 51.7204 13.5187 49.6842C10.5481 46.4262 0.691283 38.1455 0.0161565 36.6522C-0.65897 35.159 19.9999 12.4889 29.0466 8.00916C39.9837 2.85069 53.4862 2.44344 52.541 3.52943Z" fill="#56332B"/>
<path d="M39.1736 11.6744C39.1736 11.6744 20.6751 35.4306 20.9452 65.0239L13.6538 49.82C13.6538 49.82 20.135 30.4078 39.1736 11.6744Z" fill="#442823"/>
<path d="M29.1815 65.5669C29.1815 65.5669 30.5318 72.8974 32.6922 75.2051C34.8526 77.5128 33.3673 73.4404 33.3673 73.4404C33.3673 73.4404 31.0719 72.2186 31.477 62.8519C31.882 53.4852 29.1815 65.5669 29.1815 65.5669ZM144.358 65.5669C144.358 65.5669 143.008 72.8974 140.848 75.2051C138.687 77.5128 140.172 73.4404 140.172 73.4404C140.172 73.4404 142.468 72.2186 142.063 62.8519C141.658 53.4852 144.358 65.5669 144.358 65.5669Z" fill="#CCAC8D"/>
<path d="M73.3347 61.0872C73.9313 61.0872 74.4149 60.6009 74.4149 60.0012C74.4149 59.4014 73.9313 58.9152 73.3347 58.9152C72.7381 58.9152 72.2545 59.4014 72.2545 60.0012C72.2545 60.6009 72.7381 61.0872 73.3347 61.0872Z" fill="#442823"/>
<path d="M67.1234 67.6031C67.72 67.6031 68.2036 67.1169 68.2036 66.5172C68.2036 65.9174 67.72 65.4312 67.1234 65.4312C66.5268 65.4312 66.0432 65.9174 66.0432 66.5172C66.0432 67.1169 66.5268 67.6031 67.1234 67.6031Z" fill="#442823"/>
<path d="M65.0983 61.0872C65.6949 61.0872 66.1785 60.6009 66.1785 60.0012C66.1785 59.4014 65.6949 58.9152 65.0983 58.9152C64.5017 58.9152 64.0181 59.4014 64.0181 60.0012C64.0181 60.6009 64.5017 61.0872 65.0983 61.0872Z" fill="#442823"/>
<path d="M99.6648 61.0872C100.261 61.0872 100.745 60.6009 100.745 60.0012C100.745 59.4014 100.261 58.9152 99.6648 58.9152C99.0682 58.9152 98.5846 59.4014 98.5846 60.0012C98.5846 60.6009 99.0682 61.0872 99.6648 61.0872Z" fill="#442823"/>
<path d="M105.876 67.6031C106.473 67.6031 106.956 67.1169 106.956 66.5172C106.956 65.9174 106.473 65.4312 105.876 65.4312C105.279 65.4312 104.796 65.9174 104.796 66.5172C104.796 67.1169 105.279 67.6031 105.876 67.6031Z" fill="#442823"/>
<path d="M107.901 61.0872C108.498 61.0872 108.981 60.6009 108.981 60.0012C108.981 59.4014 108.498 58.9152 107.901 58.9152C107.304 58.9152 106.821 59.4014 106.821 60.0012C106.821 60.6009 107.304 61.0872 107.901 61.0872Z" fill="#442823"/>
</svg>
