<svg width="127" height="120" viewBox="0 0 127 120" fill="none" xmlns="http://www.w3.org/2000/svg">
<path d="M87.9976 83.807C92.6842 83.3241 96.2397 79.303 96.078 74.477C95.9167 69.6515 91.876 65.7908 87.0277 65.7908H86.7048C81.6942 65.9518 77.8158 70.1339 77.9775 75.1204C78.1392 77.5333 79.1086 79.6244 80.5631 81.0721C75.0684 91.8499 66.6646 99.7317 54.0588 106.327C45.4933 110.831 36.6048 112.44 27.7163 111.314C20.4435 110.349 14.7871 107.132 11.2311 101.823C6.05978 93.9409 5.5751 85.4152 9.93874 76.89C13.0096 70.7773 17.8574 66.2732 20.9282 64.0212C20.2818 61.9301 19.3119 58.3913 18.8272 55.8179C-4.60673 72.7079 -2.18232 95.5496 4.92868 106.327C10.2617 114.37 21.0899 119.357 33.0493 119.357C36.2813 119.357 39.5134 119.035 42.7459 118.231C63.4325 114.209 79.1091 101.984 87.9976 83.807ZM116.442 63.8607C104.159 49.5442 86.0584 41.6623 65.3717 41.6623H62.7861C61.3316 38.7669 58.2607 36.8363 54.867 36.8363H54.5435C49.534 36.9973 45.6555 41.1794 45.8167 46.1664C45.9785 50.9919 50.0186 54.8526 54.867 54.8526H55.1899C58.7454 54.6916 61.8162 52.4396 63.1091 49.3832H66.0182C78.3009 49.3832 89.9368 52.922 100.442 59.839C108.522 65.1474 114.341 72.0645 117.573 80.4287C120.32 87.1848 120.158 93.78 117.249 99.4103C112.724 107.936 105.129 112.601 95.1086 112.601C88.644 112.601 82.5029 110.67 79.2703 109.222C77.4928 110.831 74.2603 113.404 71.9976 115.014C78.9473 118.23 86.0584 120 92.8459 120C108.361 120 119.835 111.474 124.199 102.949C128.886 93.619 128.562 77.5333 116.442 63.8607ZM34.3421 86.541C34.5038 91.367 38.544 95.2272 43.3923 95.2272H43.7158C48.7258 95.0667 52.6043 90.8841 52.4426 85.8976C52.2813 81.0716 48.2406 77.2114 43.3923 77.2114H43.0694C42.7459 77.2114 42.2607 77.2114 41.9383 77.3719C35.3119 66.4337 32.5646 54.5306 33.5344 41.6618C34.1804 32.0103 37.4129 23.6456 43.0694 16.7285C47.756 10.7768 56.8062 7.88137 62.9478 7.7209C80.0784 7.39896 87.3507 28.632 87.8359 37.1578C89.9368 37.6402 93.4923 38.7664 95.9167 39.5708C93.977 13.5122 77.8158 0 62.3014 0C47.756 0 34.3421 10.4558 29.0086 25.8981C21.5746 46.4878 26.4229 66.2732 35.4732 81.8764C34.6655 83.0022 34.1804 84.7714 34.3421 86.541Z" fill="#764ABC"/>
</svg>
