<svg width="184" height="107" viewBox="0 0 184 107" fill="none" xmlns="http://www.w3.org/2000/svg">
<path d="M164.101 61.4424C159.101 61.4706 154.772 62.6693 151.141 64.454C149.8 61.8052 148.459 59.4906 148.236 57.7622C147.985 55.7546 147.677 54.5275 147.985 52.1298C148.292 49.7316 149.688 46.3299 149.688 46.0511C149.66 45.8001 149.381 44.5733 146.504 44.5454C143.627 44.5175 141.141 45.1031 140.862 45.8559C140.582 46.6087 140.024 48.3375 139.661 50.122C139.158 52.743 133.907 62.0279 130.918 66.9074C129.94 65.0114 129.102 63.3384 128.934 61.9998C128.683 59.9925 128.376 58.7654 128.683 56.3677C128.991 53.9695 130.387 50.5681 130.387 50.2893C130.359 50.0383 130.08 48.8115 127.203 48.7836C124.326 48.7557 121.84 49.3413 121.561 50.0941C121.282 50.8469 120.974 52.6314 120.36 54.3602C119.773 56.0889 112.79 71.5918 110.974 75.6348C110.053 77.6981 109.243 79.3432 108.656 80.4585C108.069 81.5738 108.628 80.5421 108.572 80.6537C108.069 81.6017 107.79 82.1315 107.79 82.1315V82.1596C107.399 82.8567 106.98 83.5256 106.784 83.5256C106.645 83.5256 106.365 81.6575 106.84 79.0925C107.874 73.7108 110.387 65.3184 110.36 65.0117C110.36 64.8723 110.834 63.3942 108.74 62.6416C106.7 61.8888 105.974 63.1435 105.807 63.1435C105.639 63.1435 105.499 63.5897 105.499 63.5897C105.499 63.5897 107.762 54.1377 101.17 54.1377C97.0359 54.1377 91.3378 58.6268 88.5166 62.7256C86.729 63.7015 82.9302 65.7645 78.908 67.9675C77.3717 68.804 75.7796 69.6963 74.2713 70.5049L73.9643 70.1697C65.9757 61.6655 51.1996 55.6428 51.8141 44.2108C52.0376 40.0563 53.49 29.0983 80.1934 15.8261C102.064 4.95182 119.578 7.93528 122.622 14.5714C126.952 24.0515 113.265 41.6735 90.5283 44.2108C81.8694 45.1867 77.3161 41.8408 76.1712 40.5861C74.9701 39.2756 74.8025 39.2198 74.3556 39.4707C73.6294 39.8611 74.0763 41.0322 74.3556 41.7293C75.026 43.4859 77.8192 46.6087 82.5677 48.1702C86.7293 49.5364 96.8968 50.2893 109.187 45.5492C122.958 40.2236 133.711 25.4457 130.555 13.0936C127.343 0.518451 106.45 -3.60821 86.7016 3.39038C74.9419 7.5728 62.2049 14.0974 53.0431 22.6574C42.1496 32.8068 40.4178 41.6735 41.144 45.354C43.6861 58.4868 61.8138 67.0469 69.0762 73.3763C68.713 73.5712 68.3779 73.7663 68.0706 73.9339C64.4394 75.7181 50.613 82.9401 47.1494 90.5797C43.2389 99.2234 47.764 105.441 50.7806 106.278C60.11 108.871 69.6627 104.215 74.8302 96.5469C79.9694 88.8791 79.3552 78.9249 76.9809 74.38L76.8969 74.2127L79.746 72.5398C81.5898 71.4523 83.4053 70.4486 84.9972 69.5839C84.1036 72.0097 83.4609 74.8817 83.126 79.0641C82.735 83.9717 84.7461 90.3287 87.3996 92.8382C88.5728 93.9253 89.9694 93.9535 90.8353 93.9535C93.9078 93.9535 95.3044 91.4159 96.8407 88.3769C98.7401 84.6685 100.416 80.3746 100.416 80.3746C100.416 80.3746 98.3211 92.0017 104.047 92.0017C106.142 92.0017 108.237 89.2971 109.187 87.9029V87.9308C109.187 87.9308 109.243 87.8472 109.354 87.652C109.471 87.479 109.583 87.3024 109.689 87.1225V87.0667C110.527 85.6168 112.399 82.2988 115.192 76.8058C118.795 69.7236 122.259 60.8569 122.259 60.8569C122.259 60.8569 122.594 63.0317 123.628 66.6007C124.242 68.7201 125.583 71.0341 126.616 73.2926C125.778 74.4637 125.275 75.1331 125.275 75.1331L125.303 75.161C124.633 76.0533 123.879 77.0016 123.097 77.9493C120.248 81.351 116.84 85.227 116.393 86.3423C115.862 87.6525 115.974 88.6284 117.008 89.4094C117.762 89.9671 119.103 90.0783 120.527 89.9671C123.097 89.7995 124.885 89.1585 125.778 88.7679C127.175 88.266 128.767 87.5131 130.303 86.3978C133.097 84.3348 134.8 81.4071 134.633 77.5035C134.549 75.3565 133.851 73.2374 132.985 71.2298C133.236 70.8674 133.488 70.5046 133.739 70.1145C138.152 63.6733 141.56 56.5914 141.56 56.5914C141.56 56.5914 141.895 58.7662 142.929 62.3352C143.459 64.1476 144.521 66.1276 145.471 68.0794C141.337 71.4532 138.739 75.3568 137.845 77.922C136.197 82.6621 137.482 84.809 139.912 85.3109C141.001 85.534 142.566 85.0321 143.738 84.5302C145.191 84.0562 146.951 83.2473 148.571 82.0486C151.364 79.9853 154.046 77.1134 153.906 73.2377C153.822 71.4532 153.347 69.6966 152.705 68.0236C156.224 66.5737 160.777 65.7372 166.559 66.4343C178.989 67.8842 181.447 75.6356 180.973 78.87C180.498 82.1047 177.9 83.8889 177.034 84.4466C176.168 84.9763 175.889 85.1718 175.972 85.5619C176.084 86.1477 176.475 86.1195 177.229 86.0083C178.263 85.8407 183.765 83.3594 183.989 77.3928C184.324 69.7239 177.034 61.359 164.101 61.4424ZM68.2382 93.7028C64.1322 98.192 58.3502 99.8928 55.8922 98.4429C53.2386 96.9093 54.2719 90.3011 59.3278 85.5332C62.4004 82.6333 66.3947 79.9566 69.0203 78.3115C69.6069 77.949 70.5007 77.4195 71.5621 76.778C71.7297 76.6667 71.8414 76.6107 71.8414 76.6107C72.037 76.4991 72.2604 76.3597 72.4839 76.2203C74.3553 83.0237 72.5677 88.9906 68.2382 93.7028ZM98.2652 73.3205C96.8407 76.8058 93.824 85.7562 92.0084 85.2543C90.444 84.8361 89.4945 78.0606 91.7009 71.3687C92.8182 67.9946 95.1924 63.9797 96.589 62.418C98.8518 59.9086 101.31 59.0721 101.924 60.1037C102.651 61.4424 99.1591 71.1456 98.2652 73.3205ZM123.041 85.1428C122.427 85.4498 121.868 85.6726 121.616 85.5056C121.421 85.394 121.868 84.9758 121.868 84.9758C121.868 84.9758 124.968 81.6577 126.197 80.1242C126.895 79.2322 127.733 78.2005 128.627 77.0292V77.3638C128.627 81.3786 124.773 84.0554 123.041 85.1428ZM142.146 80.7931C141.699 80.4585 141.756 79.4268 143.264 76.1924C143.85 74.9098 145.191 72.7628 147.509 70.7274C147.789 71.5639 147.956 72.3722 147.928 73.1253C147.901 78.1442 144.325 80.0124 142.146 80.7931Z" fill="#CF649A"/>
</svg>
