<svg width="126" height="126" viewBox="0 0 126 126" fill="none" xmlns="http://www.w3.org/2000/svg">
<g clip-path="url(#clip0_33_411)">
<path d="M121.015 125.85H4.88508C2.20862 125.85 0.0111084 123.652 0.0111084 120.976V4.87397C0.0111084 2.19751 2.20862 0 4.88508 0H121.015C123.692 0 125.889 2.19751 125.889 4.87397V121.004C125.861 123.681 123.692 125.85 121.015 125.85Z" fill="#4D4D4E"/>
<path d="M29.0295 38.0058L94.8986 17.1012C94.8986 17.1012 99.5754 14.6501 98.4484 19.186L98.6175 39.3299C98.6175 39.3299 99.4345 42.2881 95.3776 43.0206L68.613 51.3881L29.0295 38.0058Z" fill="#F89820"/>
<path d="M29.0296 38.0057C29.0296 38.0057 26.4376 38.6255 27.1983 43.0487L27.0574 62.4601C27.0574 62.4601 26.832 64.9112 31.4806 65.8973L96.7581 86.9145C96.7581 86.9145 98.9556 87.7879 98.702 85.0833L98.7302 63.4462C98.7302 63.4462 99.35 61.2205 95.2931 59.7555L68.613 51.388L29.0296 38.0057Z" fill="#F89820"/>
<path d="M57.7944 74.3492L30.0156 82.8294C30.0156 82.8294 26.663 82.9421 27.0574 89.2247C27.4518 95.5074 27.0292 108.157 27.0292 108.157C27.0292 108.157 27.311 110.496 30.5227 109.143L96.3918 88.126C96.3918 88.126 98.7302 87.5343 96.758 86.8863C94.7859 86.2665 57.7944 74.3492 57.7944 74.3492Z" fill="url(#paint0_linear_33_411)"/>
</g>
<defs>
<linearGradient id="paint0_linear_33_411" x1="30.8828" y1="96.645" x2="97.5134" y2="73.5914" gradientUnits="userSpaceOnUse">
<stop offset="0.233" stop-color="#F89822"/>
<stop offset="1" stop-color="#C27818"/>
</linearGradient>
<clipPath id="clip0_33_411">
<rect width="125.9" height="125.85" fill="white"/>
</clipPath>
</defs>
</svg>
