<svg width="126" height="127" viewBox="0 0 126 127" fill="none" xmlns="http://www.w3.org/2000/svg">
<path d="M0 63.1281V0.177979H125.9V126.078H0" fill="#007ACC"/>
<path d="M27.6035 63.3486V68.479H43.9706V115.062H55.5849V68.479H71.9519V63.443C71.9519 60.6102 71.9519 58.3126 71.826 58.2496C71.826 58.1552 61.8484 58.1237 49.7305 58.1237L27.6979 58.2181V63.38L27.6035 63.3486ZM101.161 58.0922C104.371 58.8476 106.826 60.2955 109.03 62.5932C110.194 63.8522 111.925 66.0554 112.051 66.622C112.051 66.8108 106.606 70.4934 103.301 72.5393C103.175 72.6337 102.672 72.0986 102.168 71.2803C100.531 68.9511 98.8631 67.9439 96.2507 67.7551C92.4737 67.5033 89.9557 69.4862 89.9557 72.7911C89.9557 73.7983 90.1445 74.3648 90.5222 75.1832C91.372 76.9143 92.9458 77.953 97.8244 80.0933C106.826 83.9647 110.729 86.5142 113.09 90.1653C115.765 94.2571 116.363 100.678 114.569 105.494C112.555 110.75 107.645 114.307 100.626 115.471C98.4225 115.849 93.3864 115.786 91.0258 115.377C85.9898 114.433 81.1741 111.915 78.2155 108.673C77.0509 107.414 74.8161 104.046 74.942 103.826L76.1381 103.07L80.8594 100.332L84.416 98.2544L85.2344 99.3561C86.2731 100.993 88.6022 103.196 89.9557 103.951C94.0474 106.06 99.5241 105.777 102.231 103.322C103.396 102.252 103.899 101.119 103.899 99.5449C103.899 98.0971 103.679 97.4361 102.955 96.3345C101.948 94.9496 99.9333 93.8164 94.2677 91.2984C87.7524 88.5286 84.9826 86.766 82.4016 84.0592C80.9223 82.4225 79.5689 79.873 78.9394 77.7642C78.4673 75.9386 78.3099 71.4691 78.7505 69.6751C80.104 63.38 84.8567 58.9735 91.6553 57.7145C93.8586 57.2739 99.052 57.4627 101.224 58.0293L101.161 58.0922Z" fill="white"/>
</svg>
