<svg width="488" height="533" viewBox="0 0 488 533" fill="none" xmlns="http://www.w3.org/2000/svg">
<path d="M250.617 6.83276C240.044 10.6505 197.755 25.1176 156.428 38.982C43.0164 77.3602 21.8719 84.9956 22.0642 87.2059C22.2564 89.4161 39.7486 99.0609 137.398 151.504C171.421 169.588 203.522 187.069 208.712 189.883L218.131 195.308L286.37 172C323.661 159.341 380.175 140.051 411.699 129.402C447.837 117.145 468.789 109.108 468.212 107.701C467.828 106.295 450.72 96.2479 430.152 85.1966C324.43 28.3326 270.992 -0.19989 270.416 0.00104243C270.223 0.00104243 261.189 3.21597 250.617 6.83276Z" fill="#232325"/>
<path d="M0.919709 197.116C0.15082 249.359 -0.233625 321.293 0.15082 357.059L0.727487 421.96L21.872 433.614C33.5975 439.843 68.1975 458.53 98.7609 474.805C129.516 491.282 165.078 510.571 178.149 517.604C191.22 524.837 202.945 530.062 204.483 529.459C206.982 528.454 207.367 506.754 207.367 369.717V211.181L158.927 185.06C37.2497 119.958 4.18749 102.276 3.22638 102.276C2.64971 102.276 1.49638 145.074 0.919709 197.116Z" fill="#232325"/>
<path d="M427.461 144.472C395.744 155.322 337.693 175.214 298.48 188.476L227.165 212.789L226.012 371.928C225.435 459.534 225.627 532.071 226.396 532.875C227.165 533.679 250.809 526.646 278.681 517.202C306.553 507.557 345.382 494.296 364.989 487.665C384.595 481.034 419.58 469.179 442.839 461.142L485.128 446.675L486.281 392.624C488.011 312.853 488.203 126.79 486.665 125.785C485.704 125.182 459.178 133.822 427.461 144.472Z" fill="#232325"/>
</svg>
