<svg width="28" height="27" viewBox="0 0 28 27" fill="none" xmlns="http://www.w3.org/2000/svg">
<path fill-rule="evenodd" clip-rule="evenodd" d="M13.9987 0C6.26882 0 0 6.19709 0 13.8421C0 19.9567 4.01105 25.1452 9.57424 26.9764C10.2747 27.103 10.5299 26.6755 10.5299 26.3085C10.5299 25.9796 10.5179 25.1096 10.511 23.9548C6.6169 24.7909 5.79526 22.099 5.79526 22.099C5.1584 20.4998 4.24053 20.0739 4.24053 20.0739C2.96939 19.2157 4.33678 19.2328 4.33678 19.2328C5.74198 19.3304 6.48109 20.6594 6.48109 20.6594C7.72987 22.7744 9.75818 22.1635 10.5557 21.8092C10.6829 20.9152 11.0448 20.3052 11.4444 19.9592C8.33578 19.6091 5.0673 18.4221 5.0673 13.1181C5.0673 11.6065 5.61305 10.3718 6.50861 9.40399C6.36423 9.05389 5.88379 7.64672 6.64612 5.74078C6.64612 5.74078 7.82096 5.36859 10.4956 7.15895C11.612 6.85221 12.8101 6.69926 14.0004 6.69331C15.1899 6.69926 16.3871 6.85221 17.5052 7.15895C20.1781 5.36859 21.3512 5.74078 21.3512 5.74078C22.1154 7.64672 21.635 9.05389 21.4914 9.40399C22.3886 10.3718 22.9301 11.6065 22.9301 13.1181C22.9301 18.4357 19.6564 19.6058 16.5384 19.9482C17.0403 20.3757 17.488 21.2204 17.488 22.5119C17.488 24.3617 17.4709 25.8547 17.4709 26.3085C17.4709 26.679 17.7235 27.1099 18.4335 26.9746C23.9924 25.1402 28 19.9559 28 13.8421C28 6.19709 21.7312 0 13.9987 0Z" fill="#5E3BB3"/>
</svg>
