<svg width="70" height="64" viewBox="0 0 70 64" fill="none" xmlns="http://www.w3.org/2000/svg">
<rect width="70" height="64" rx="10" fill="white"/>
<path d="M57.8445 15.9045L35.7662 55.0392C35.3102 55.8471 34.1393 55.8519 33.6764 55.0479L11.1605 15.9082C10.6565 15.0319 11.4122 13.9705 12.4138 14.1479L34.5159 18.0641C34.6569 18.0891 34.8013 18.0888 34.9422 18.0634L56.5819 14.1536C57.5802 13.9732 58.3397 15.0265 57.8445 15.9045Z" fill="url(#paint0_linear_33_431)"/>
<path d="M45.0442 9.0115L28.7056 12.1849C28.5751 12.2103 28.4567 12.2779 28.3691 12.3772C28.2816 12.4765 28.2298 12.6019 28.222 12.7335L27.217 29.5597C27.1935 29.956 27.5606 30.2636 27.9507 30.1743L32.4996 29.1338C32.9253 29.0364 33.3099 29.4081 33.2223 29.8323L31.8709 36.3925C31.7799 36.8338 32.198 37.2115 32.633 37.0806L35.4426 36.2343C35.8783 36.1032 36.2967 36.4819 36.2047 36.9237L34.057 47.2283C33.9226 47.8728 34.7874 48.2242 35.1481 47.6716L35.389 47.3026L48.7026 20.9651C48.9255 20.5241 48.5413 20.0213 48.0524 20.1147L43.3702 21.0105C42.9301 21.0946 42.5558 20.6885 42.6799 20.2616L45.736 9.76006C45.8603 9.33241 45.4847 8.9259 45.0442 9.0115Z" fill="url(#paint1_linear_33_431)"/>
<defs>
<linearGradient id="paint0_linear_33_431" x1="10.6107" y1="12.7491" x2="37.7757" y2="49.9664" gradientUnits="userSpaceOnUse">
<stop stop-color="#41D1FF"/>
<stop offset="1" stop-color="#BD34FE"/>
</linearGradient>
<linearGradient id="paint1_linear_33_431" x1="33.2462" y1="9.87297" x2="38.1319" y2="43.6839" gradientUnits="userSpaceOnUse">
<stop stop-color="#FFEA83"/>
<stop offset="0.0833" stop-color="#FFDD35"/>
<stop offset="1" stop-color="#FFA800"/>
</linearGradient>
</defs>
</svg>
