<svg width="70" height="64" viewBox="0 0 70 64" fill="none" xmlns="http://www.w3.org/2000/svg">
<rect width="70" height="64" rx="10" fill="white"/>
<g clip-path="url(#clip0_40_1348)">
<path d="M11 11H59V55H11V11Z" fill="#017ACB"/>
<path d="M34.0475 27.2938H36.35V30.9375H30.125V47.1488L29.96 47.19C29.735 47.245 26.7725 47.245 26.135 47.1831L25.625 47.1419V30.9375H19.4V27.2938L21.3725 27.2731C22.4525 27.2594 25.2275 27.2594 27.5375 27.2731C29.8475 27.2869 32.7725 27.2938 34.0475 27.2938ZM51.62 45.43C50.705 46.3169 49.7225 46.8119 48.0875 47.2175C47.375 47.3963 47.255 47.4031 45.65 47.3963C44.045 47.3894 43.9175 47.3894 43.1375 47.2038C41.12 46.7294 39.4925 45.8013 38.3825 44.4881C38.0675 44.1169 37.55 43.3469 37.55 43.2506C37.55 43.2231 37.625 43.1613 37.7225 43.12C37.82 43.0788 38.0225 42.9619 38.1875 42.8725C38.3525 42.7831 38.6525 42.6181 38.855 42.5219C39.0575 42.4256 39.6425 42.1094 40.1525 41.8275C40.6625 41.5456 41.1275 41.3188 41.18 41.3188C41.2325 41.3188 41.33 41.415 41.405 41.5319C41.855 42.2263 42.905 43.1131 43.6475 43.4156C44.105 43.5944 45.1175 43.7938 45.605 43.7938C46.055 43.7938 46.88 43.615 47.3225 43.4294C47.795 43.23 48.035 43.0306 48.32 42.6319C48.515 42.35 48.5375 42.2744 48.53 41.7381C48.53 41.2431 48.5 41.1056 48.35 40.8788C47.93 40.2463 47.36 39.9163 45.05 38.9813C42.665 38.0119 41.5925 37.4344 40.7225 36.6575C40.0775 36.08 39.95 35.9219 39.545 35.2C39.02 34.2719 38.9525 33.9694 38.945 32.5875C38.9375 31.6181 38.96 31.3019 39.0725 30.9719C39.23 30.4769 39.74 29.5213 39.9725 29.2806C40.4525 28.765 40.625 28.6069 40.9625 28.3525C41.9825 27.5825 43.5725 27.0738 45.095 27.0256C45.2675 27.0256 45.8375 27.0531 46.37 27.0875C47.9 27.2044 48.9425 27.5481 49.9475 28.2838C50.705 28.8338 51.8525 30.1263 51.74 30.2981C51.665 30.4013 48.6725 32.23 48.4775 32.285C48.3575 32.3194 48.275 32.2781 48.11 32.0994C47.09 30.9788 46.6775 30.7381 45.6875 30.6831C44.9825 30.6419 44.6075 30.7175 44.135 31.0063C43.64 31.3088 43.4 31.7694 43.4 32.4088C43.4075 33.3438 43.7975 33.7838 45.2375 34.4369C46.1675 34.8563 46.9625 35.2 47.0225 35.2C47.1125 35.2 49.04 36.08 49.5425 36.355C51.8825 37.6131 52.835 38.9056 53.0825 41.1331C53.2625 42.8106 52.745 44.3438 51.62 45.43Z" fill="white"/>
</g>
<defs>
<clipPath id="clip0_40_1348">
<rect x="11" y="11" width="48" height="44" rx="10" fill="white"/>
</clipPath>
</defs>
</svg>
