<svg width="70" height="64" viewBox="0 0 70 64" fill="none" xmlns="http://www.w3.org/2000/svg">
<rect width="70" height="64" rx="10" fill="white"/>
<path d="M57.0424 34.098C55.2942 34.1072 53.7804 34.4993 52.5108 35.0831C52.042 34.2166 51.5732 33.4595 51.4951 32.8942C51.4072 32.2375 51.2998 31.8361 51.4072 31.0518C51.5146 30.2674 52.0029 29.1546 52.0029 29.0634C51.993 28.9814 51.8954 28.5801 50.8895 28.5709C49.8837 28.5618 49.0144 28.7533 48.9167 28.9996C48.819 29.2459 48.6237 29.8113 48.4967 30.395C48.3209 31.2524 46.4848 34.2895 45.4398 35.8856C45.098 35.2654 44.805 34.7182 44.7463 34.2803C44.6585 33.6237 44.551 33.2223 44.6585 32.438C44.7659 31.6536 45.2543 30.541 45.2543 30.4498C45.2445 30.3677 45.1468 29.9664 44.141 29.9573C43.1349 29.9481 42.2658 30.1397 42.1681 30.3859C42.0705 30.6322 41.9631 31.2159 41.7482 31.7814C41.543 32.3468 39.1014 37.4179 38.4666 38.7403C38.1443 39.4153 37.8611 39.9534 37.6559 40.3182C37.4508 40.683 37.6462 40.3456 37.6266 40.382C37.4508 40.6921 37.3532 40.8654 37.3532 40.8654V40.8746C37.2164 41.1027 37.07 41.3215 37.0015 41.3215C36.9527 41.3215 36.855 40.7104 37.021 39.8714C37.3824 38.111 38.2614 35.3658 38.2517 35.2655C38.2517 35.2199 38.4176 34.7364 37.6851 34.4903C36.9722 34.244 36.7184 34.6544 36.6597 34.6544C36.6011 34.6544 36.5522 34.8004 36.5522 34.8004C36.5522 34.8004 37.3433 31.7086 35.0384 31.7086C33.593 31.7086 31.6006 33.177 30.6142 34.5177C29.9892 34.8369 28.6609 35.5118 27.2545 36.2324C26.7174 36.506 26.1607 36.7978 25.6333 37.0623L25.526 36.9527C22.7328 34.1709 17.5663 32.2009 17.7812 28.4615C17.8593 27.1025 18.3671 23.5181 27.704 19.1768C35.3511 15.6198 41.4747 16.5957 42.5392 18.7663C44.053 21.8673 39.2674 27.6315 31.3176 28.4615C28.29 28.7807 26.698 27.6862 26.2976 27.2758C25.8777 26.8471 25.8191 26.8289 25.6628 26.911C25.4089 27.0387 25.5651 27.4217 25.6628 27.6498C25.8972 28.2243 26.8738 29.2459 28.5341 29.7566C29.9893 30.2035 33.5443 30.4498 37.8416 28.8993C42.6565 27.1572 46.4166 22.3234 45.313 18.283C44.1898 14.1696 36.8845 12.8197 29.9796 15.109C25.8678 16.4771 21.4143 18.6113 18.2109 21.4113C14.402 24.7312 13.7964 27.6315 14.0504 28.8354C14.9392 33.1312 21.2776 35.9312 23.8168 38.0016C23.6899 38.0653 23.5727 38.1292 23.4652 38.184C22.1956 38.7676 17.3612 41.1299 16.1502 43.6289C14.7828 46.4562 16.365 48.4902 17.4198 48.7638C20.6818 49.612 24.0219 48.0889 25.8287 45.5808C27.6257 43.0726 27.4109 39.8166 26.5808 38.3299L26.5514 38.2752L27.5475 37.728C28.1922 37.3723 28.827 37.0439 29.3836 36.7611C29.0712 37.5546 28.8465 38.494 28.7294 39.8621C28.5926 41.4674 29.2958 43.5468 30.2236 44.3676C30.6338 44.7232 31.1222 44.7325 31.4249 44.7325C32.4992 44.7325 32.9876 43.9024 33.5247 42.9083C34.1888 41.6953 34.7748 40.2907 34.7748 40.2907C34.7748 40.2907 34.0423 44.094 36.0445 44.094C36.777 44.094 37.5094 43.2093 37.8415 42.7533V42.7624C37.8415 42.7624 37.861 42.7351 37.9001 42.6712C37.9411 42.6146 37.9802 42.5569 38.0173 42.498V42.4798C38.3103 42.0055 38.9646 40.9202 39.9413 39.1234C41.2011 36.8068 42.4122 33.9065 42.4122 33.9065C42.4122 33.9065 42.5294 34.6179 42.8908 35.7853C43.1055 36.4785 43.5743 37.2355 43.9357 37.9742C43.6427 38.3573 43.4669 38.5763 43.4669 38.5763L43.4767 38.5854C43.2424 38.8772 42.9786 39.1874 42.7052 39.4974C41.709 40.6101 40.5175 41.878 40.3613 42.2428C40.1757 42.6714 40.2148 42.9906 40.5761 43.2461C40.8398 43.4285 41.3086 43.4649 41.8067 43.4285C42.7052 43.3737 43.3303 43.164 43.6428 43.0362C44.1311 42.872 44.6878 42.6258 45.225 42.261C46.2016 41.5861 46.7974 40.6285 46.7388 39.3516C46.7095 38.6493 46.4653 37.9562 46.1625 37.2995C46.2504 37.1809 46.3384 37.0623 46.4262 36.9347C47.9693 34.8277 49.1609 32.5112 49.1609 32.5112C49.1609 32.5112 49.278 33.2226 49.6394 34.39C49.8249 34.9829 50.1961 35.6305 50.5282 36.2689C49.0827 37.3725 48.1744 38.6494 47.8619 39.4885C47.2857 41.039 47.7349 41.7413 48.5846 41.9054C48.9654 41.9784 49.5124 41.8142 49.9225 41.6501C50.4304 41.495 51.0457 41.2304 51.6122 40.8383C52.5889 40.1634 53.5265 39.224 53.4776 37.9563C53.4483 37.3725 53.2823 36.7979 53.0577 36.2507C54.2882 35.7764 55.8801 35.5028 57.9018 35.7308C62.2479 36.2051 63.1074 38.7406 62.9414 39.7986C62.7754 40.8567 61.8671 41.4403 61.5643 41.6227C61.2615 41.796 61.1639 41.8599 61.1932 41.9875C61.2322 42.1792 61.3689 42.1699 61.6326 42.1336C61.994 42.0787 63.918 41.2671 63.9961 39.3154C64.1133 36.8069 61.5643 34.0707 57.0424 34.098ZM23.5238 44.6505C22.0882 46.1189 20.0665 46.6752 19.2071 46.201C18.2792 45.6993 18.6405 43.5378 20.4083 41.9781C21.4827 41.0296 22.8793 40.154 23.7973 39.6159C24.0024 39.4973 24.3149 39.3242 24.6861 39.1143C24.7447 39.0779 24.7837 39.0596 24.7837 39.0596C24.8521 39.0231 24.9302 38.9775 25.0084 38.9319C25.6627 41.1573 25.0377 43.1091 23.5238 44.6505ZM34.0228 37.9833C33.5247 39.1234 32.4699 42.0511 31.8351 41.8869C31.2881 41.7501 30.9561 39.5338 31.7276 37.3449C32.1182 36.2412 32.9484 34.928 33.4367 34.4171C34.2279 33.5963 35.0873 33.3226 35.3022 33.6601C35.5561 34.098 34.3353 37.2719 34.0228 37.9833ZM42.6857 41.8505C42.4708 41.9509 42.2755 42.0237 42.1876 41.9691C42.1192 41.9326 42.2754 41.7958 42.2754 41.7958C42.2754 41.7958 43.3595 40.7105 43.7892 40.2088C44.0333 39.9171 44.3263 39.5796 44.6389 39.1965V39.3059C44.639 40.6192 43.2912 41.4947 42.6857 41.8505ZM49.3658 40.4276C49.2096 40.3182 49.2292 39.9807 49.7565 38.9228C49.9617 38.5032 50.4304 37.8009 51.241 37.1351C51.3387 37.4087 51.3974 37.6731 51.3875 37.9195C51.3778 39.5612 50.1277 40.1723 49.3658 40.4276Z" fill="#CF649A"/>
</svg>
