<svg width="70" height="64" viewBox="0 0 70 64" fill="none" xmlns="http://www.w3.org/2000/svg">
<rect width="70" height="64" rx="10" fill="white"/>
<path d="M13.4186 26.0283C13.4186 26.0283 12.3469 25.3143 13.633 24.3611L16.6292 21.885C16.6292 21.885 17.4865 21.0514 18.393 21.7777L46.0422 41.1238V50.4007C46.0422 50.4007 46.0288 51.8574 44.006 51.6965L13.4186 26.0283Z" fill="#2489CA"/>
<path d="M20.5454 32.0081L13.4187 37.9959C13.4187 37.9959 12.6864 38.4994 13.4187 39.399L16.7275 42.1804C16.7275 42.1804 17.5134 42.9604 18.6744 42.0731L26.2297 36.7785L20.5454 32.0081Z" fill="#1070B3"/>
<path d="M33.057 32.0575L46.127 22.8343L46.0422 13.607C46.0422 13.607 45.484 11.5931 43.622 12.6413L26.2296 27.2705L33.057 32.0575Z" fill="#0877B9"/>
<path d="M44.0061 51.7089C44.7652 52.4269 45.685 52.1917 45.685 52.1917L55.8704 47.5533C57.1743 46.7321 56.9912 45.7128 56.9912 45.7128V18.0142C56.9912 16.7968 55.6427 16.3759 55.6427 16.3759L46.8148 12.4431C44.8858 11.3413 43.6221 12.6412 43.6221 12.6412C43.6221 12.6412 45.2474 11.56 46.0423 13.6069V50.2315C46.0423 50.4833 45.9842 50.7309 45.8681 50.9537C45.6359 51.387 45.1313 51.7914 43.9212 51.6222L44.0061 51.7089Z" fill="#3C99D4"/>
</svg>
