<svg width="31" height="32" viewBox="0 0 31 32" fill="none" xmlns="http://www.w3.org/2000/svg">
<path fill-rule="evenodd" clip-rule="evenodd" d="M26.5714 0H4.42857C1.98289 0 0 1.76621 0 3.94464V23.6679C0 25.8463 1.98289 27.6125 4.42857 27.6125H7.75V25.6402H4.42857C3.20629 25.6402 2.21429 24.7566 2.21429 23.6679V3.94464C2.21429 2.85592 3.20629 1.97232 4.42857 1.97232H26.5714C27.7937 1.97232 28.7857 2.85592 28.7857 3.94464V23.6679C28.7857 24.7566 27.7937 25.6402 26.5714 25.6402H23.25V27.6125H26.5714C29.0171 27.6125 31 25.8463 31 23.6679V3.94464C31 1.76621 29.0171 0 26.5714 0ZM23.9774 13.0597L16.3392 6.25523C16.1078 6.05011 15.8011 5.96232 15.5 5.97613C15.1989 5.96232 14.8922 6.05011 14.6619 6.25523L7.02259 13.0597C6.5897 13.4443 6.5897 14.0695 7.02259 14.4541C7.45438 14.8397 8.15632 14.8397 8.58921 14.4541L14.3929 9.28372V30.571C14.3929 31.1163 14.8877 31.5571 15.5 31.5571C16.1111 31.5571 16.6071 31.1163 16.6071 30.571V9.28372L22.4119 14.4541C22.8437 14.8397 23.5456 14.8397 23.9774 14.4541C24.4103 14.0695 24.4103 13.4443 23.9774 13.0597Z" fill="#F3F3F3"/>
</svg>
