<svg width="67" height="149" viewBox="0 0 67 149" fill="none" xmlns="http://www.w3.org/2000/svg">
<path d="M51.5288 143.851L52.9518 120.138L56.8811 113.431C56.8811 113.431 47.9379 117.089 32.9655 117.089C17.9929 117.089 9.18524 113.498 9.18524 113.498L13.5889 120.815L15.1468 143.851C15.1468 146.32 23.291 148.322 33.3379 148.322C43.3843 148.322 51.5288 146.32 51.5288 143.851ZM47.0398 33.1173L50.0268 21.3109L66.5677 3.9059L62.2081 0.192627L44.6961 18.7333L41.228 32.8388C38.6179 32.7513 36.0064 32.7079 33.3948 32.7085C14.9514 32.7085 0 34.8104 0 37.4027C0 39.9952 14.9514 42.0969 33.3948 42.0969C51.8379 42.0969 66.7891 39.9952 66.7891 37.4027C66.7891 35.4937 58.6802 33.8507 47.0398 33.1173Z" fill="#D34A47"/>
<path d="M45.3022 39.729C45.3022 39.729 44.6553 39.874 42.7524 39.8821C40.8489 39.89 39.4974 39.8698 38.9591 39.3795C38.8144 39.2478 38.7352 38.9864 38.736 38.8094C38.7375 38.4725 38.9767 38.274 39.2814 38.1497L39.5696 38.6017C39.4442 38.645 39.3726 38.6961 39.3724 38.7507C39.3713 39.0066 41.3186 39.1818 42.808 39.1629C44.2976 39.1445 46.0975 39.0218 46.0991 38.7696C46.0991 38.6932 45.963 38.6214 45.7262 38.5648L46.013 38.1158C46.399 38.2357 46.736 38.4672 46.7352 38.8679C46.7315 39.5491 45.8646 39.6527 45.3022 39.729Z" fill="white"/>
<path d="M66.535 3.94018C66.9509 3.45979 66.3197 2.23104 65.1253 1.19606C63.9304 0.161614 62.6245 -0.287828 62.2079 0.192555C61.7917 0.672939 62.4232 1.90169 63.6181 2.93614C64.8125 3.97086 66.1189 4.42082 66.535 3.94018ZM50.733 85.9308C50.3409 82.1591 58.9829 76.6965 56.765 76.5216C51.9906 76.7946 49.6143 82.1168 47.2122 87.6911C46.3319 89.734 43.3198 98.4454 41.3442 97.373C39.3692 96.301 43.9048 89.1375 45.176 84.8832C43.7092 85.9589 38.3298 90.1384 36.9434 86.2242C34.7146 88.1172 29.9519 89.1427 30.4892 84.1703C29.3034 86.2706 26.6422 89.203 23.4478 87.9845C19.2529 86.3847 25.8786 73.0218 27.5261 73.696C29.1739 74.3699 27.1936 77.414 26.675 78.596C25.5343 81.1975 24.2167 84.4679 25.0969 85.1373C26.605 86.2843 30.7087 80.7984 30.7999 80.6778C31.5674 79.6638 33.7541 73.0299 35.5164 73.7917C37.2788 74.5534 31.1206 83.3123 33.4232 85.0505C33.8875 85.4014 35.7876 84.8342 36.9434 83.5837C37.6913 82.7747 37.434 80.983 39.9269 75.038C42.4199 69.0933 44.6416 61.6898 46.3513 62.2538C48.061 62.8176 46.6518 66.6174 46.0385 68.0339C43.1604 74.6822 38.1835 85.6657 40.5306 84.8342C42.8777 84.003 44.0999 83.9542 46.3982 81.2646C48.6966 78.5751 48.5906 74.1449 50.1225 74.239C51.6549 74.3334 51.3977 75.7539 51.0261 76.8355C52.5339 75.1101 58.1731 71.4763 59.5346 75.0752C61.1472 79.336 51.4664 85.4905 53.8801 85.1767C56.2335 84.8707 60.0462 82.4559 61.674 80.2603L66.1548 39.9768C66.1548 39.9768 61.646 43.7082 32.9609 43.7082C4.27551 43.7082 0.233154 40.0544 0.233154 40.0544L4.0479 76.8237C6.07275 71.0688 10.881 59.4284 18.4602 59.8191C21.9078 59.9969 26.5103 66.6355 22.5678 66.8605C20.8991 66.9554 20.7297 63.5468 18.7536 63.0462C17.3277 62.6849 15.3424 63.8442 14.0594 65.1002C11.5007 67.6044 5.9975 77.4845 6.72463 82.4103C7.65104 88.6901 15.3904 80.2281 16.6999 77.7158C17.6221 75.9461 18.2452 70.7028 20.2622 71.2529C22.2794 71.803 20.0862 77.2141 18.6241 81.9983C16.9816 87.3704 16.1181 93.0372 14.0594 92.3853C12.0005 91.734 15.3542 84.7988 15.2328 83.5837C13.2976 85.3691 9.73253 89.8892 5.17151 87.652L7.54065 110.485C7.54065 110.485 13.8373 115.461 32.8054 115.461C51.7734 115.461 58.3032 110.563 58.3032 110.563L61.245 84.1165C58.8381 86.4602 51.2207 90.6221 50.733 85.9308Z" fill="#D34A47"/>
</svg>
