<svg width="126" height="126" viewBox="0 0 126 126" fill="none" xmlns="http://www.w3.org/2000/svg">
<path d="M0 0H125.9V125.9H0V0Z" fill="#F0DB4F"/>
<path d="M115.596 95.8735C114.675 90.129 110.929 85.306 99.8347 80.8061C95.9811 79.0349 91.6847 77.7665 90.4041 74.8462C89.9494 73.1468 89.8895 72.1894 90.1767 71.1602C91.0025 67.8212 94.9878 66.78 98.1472 67.7374C100.182 68.4196 102.109 69.9875 103.269 72.4886C108.703 68.9702 108.691 68.994 112.485 66.5767C111.096 64.4225 110.354 63.429 109.445 62.5076C106.178 58.8575 101.726 56.9785 94.6048 57.1222C93.3721 57.2777 92.1276 57.4452 90.8948 57.6009C87.3405 58.4984 83.9535 60.3654 81.9669 62.8667C76.007 69.6284 77.7064 81.4644 84.9588 86.3353C92.1035 91.6969 102.599 92.9176 103.94 97.9321C105.244 104.072 99.4279 106.058 93.6474 105.352C89.3869 104.466 87.0174 102.3 84.4562 98.3629C79.741 101.092 79.741 101.092 74.8941 103.88C76.043 106.393 77.2516 107.53 79.1785 109.708C88.2979 118.959 111.12 118.505 115.213 104.502C115.381 104.024 116.482 100.816 115.596 95.8735ZM68.4434 57.864H56.6671C56.6671 68.0366 56.6194 78.1373 56.6194 88.3099C56.6194 94.7844 56.9545 100.72 55.9013 102.54C54.178 106.118 49.714 105.675 47.6795 104.981C45.6091 103.964 44.5559 102.515 43.3352 100.469C43.0001 99.8827 42.7488 99.4279 42.6649 99.392C39.4697 101.343 36.2861 103.305 33.0908 105.256C34.6826 108.523 37.0281 111.36 40.032 113.203C44.5199 115.895 50.5517 116.721 56.8588 115.273C60.9637 114.076 64.506 111.599 66.361 107.829C69.0418 102.887 68.4673 96.9027 68.4434 90.2846C68.5032 79.4897 68.4434 68.6948 68.4434 57.864Z" fill="#323330"/>
</svg>
