<svg width="197" height="197" viewBox="0 0 197 197" fill="none" xmlns="http://www.w3.org/2000/svg">
<rect width="197" height="197" rx="98.5" fill="#F3F3F3"/>
<path d="M36.9375 49.2228C36.9375 49.6718 37.0373 50.9441 37.187 52.0418C37.3117 53.1394 37.5861 56.1579 37.8106 58.7773C38.0351 61.3717 38.3096 64.515 38.4343 65.7623C38.584 66.9846 38.9083 70.4771 39.1827 73.4957C40.5048 88.3887 40.9539 93.2782 41.0537 94.2012C41.1285 94.75 41.4029 97.7186 41.6773 100.812C42.2261 106.824 43.1741 117.327 43.7978 124.012C43.9973 126.282 44.3965 130.773 44.6958 133.991C44.9952 137.209 45.2696 140.003 45.3195 140.177C45.3694 140.327 49.8597 142.672 55.323 145.366C60.7863 148.06 69.0685 152.152 73.7335 154.447C78.3984 156.742 85.7327 160.384 90.0235 162.504C96.2601 165.598 97.9564 166.346 98.3805 166.197C98.9044 165.972 101.274 164.849 108.658 161.307C110.579 160.384 113.274 159.087 114.646 158.438C116.018 157.79 118.612 156.542 120.383 155.694C125.871 153.05 129.738 151.204 132.856 149.707C138.27 147.113 141.263 145.691 146.178 143.321C148.847 142.023 151.092 140.976 151.192 140.976C151.466 140.976 151.442 141.225 153.313 121.443C154.061 113.535 154.934 104.205 155.807 94.9496C156.156 91.2326 156.73 85.2704 157.054 81.6531C157.404 78.0609 157.953 72.1236 158.302 68.4315C158.651 64.7644 159.225 58.8771 159.574 55.3097C159.898 51.7673 160.123 48.7987 160.048 48.6989C159.948 48.6241 132.208 48.4994 98.4055 48.4744L36.9375 48.3746V49.2228ZM92.2686 86.817L92.1938 92.6296L87.7035 94.5005C85.2338 95.5233 82.5894 96.596 81.841 96.9203C81.0927 97.2446 77.5253 98.7165 73.933 100.213C70.3158 101.71 67.3721 102.982 67.3721 103.082C67.3721 103.157 69.0934 103.98 71.1889 104.878C73.2595 105.776 76.9515 107.398 79.3464 108.446C87.928 112.188 89.4248 112.811 89.7491 112.736C90.0235 112.662 91.2209 110.292 95.9358 100.438C97.0833 98.018 98.8296 94.3758 102.023 87.7151C103.145 85.3702 104.368 82.8256 104.742 82.0273C105.091 81.254 105.54 80.6054 105.715 80.6054C105.889 80.6054 107.112 81.1043 108.409 81.728C113.648 84.2226 115.544 85.1207 119.136 86.842C121.206 87.8398 123.676 89.0123 124.624 89.4614C125.597 89.9104 128.167 91.1328 130.362 92.2055C132.557 93.2532 136.05 94.8997 138.095 95.8726C140.166 96.8455 141.987 97.7685 142.161 97.8933C142.386 98.0679 142.461 99.4399 142.461 103.182V108.221L137.546 110.541C134.827 111.813 131.435 113.435 129.988 114.108C128.541 114.782 124.4 116.728 120.757 118.449C117.115 120.17 112.4 122.416 110.255 123.413C108.11 124.436 106.239 125.259 106.114 125.259C105.864 125.259 105.54 120.22 105.54 116.528V114.632L117.939 108.969C124.774 105.876 130.387 103.232 130.437 103.107C130.462 102.982 128.89 102.184 126.944 101.311C124.973 100.463 122.928 99.5397 122.379 99.2903C117.764 97.1948 108.184 93.0786 107.935 93.0786C107.76 93.0786 105.914 96.5212 103.844 100.737C101.773 104.978 98.1809 112.312 95.836 117.077L91.5701 125.733L89.6243 124.86C88.5766 124.386 79.8952 120.445 70.3657 116.104C60.8362 111.763 52.8783 108.121 52.7286 107.972C52.4791 107.797 52.4043 106.5 52.4043 103.057V98.3672L53.7264 97.8184C55.6473 96.9952 55.8718 96.8954 71.1141 90.0102C91.5951 80.78 91.9194 80.6303 92.1439 80.8299C92.2437 80.9297 92.2936 83.6239 92.2686 86.817Z" fill="url(#paint0_linear_122_317)"/>
<defs>
<linearGradient id="paint0_linear_122_317" x1="67.7188" y1="48.3746" x2="125.073" y2="168.228" gradientUnits="userSpaceOnUse">
<stop stop-color="#53389E"/>
<stop offset="1" stop-color="#6941C6"/>
</linearGradient>
</defs>
</svg>
