<svg width="28" height="28" viewBox="0 0 28 28" fill="none" xmlns="http://www.w3.org/2000/svg">
<path d="M3.5 8.40008C3.5 7.09329 3.5 6.43989 3.75432 5.94077C3.97802 5.50172 4.33497 5.14477 4.77402 4.92107C5.27315 4.66675 5.92655 4.66675 7.23333 4.66675H20.7667C22.0734 4.66675 22.7269 4.66675 23.226 4.92107C23.665 5.14477 24.022 5.50172 24.2457 5.94077C24.5 6.43989 24.5 7.0933 24.5 8.40008V23.3334L20.6216 21.3942C20.3276 21.2472 20.1806 21.1737 20.0265 21.1219C19.8898 21.0759 19.749 21.0427 19.6061 21.0226C19.4451 21.0001 19.2807 21.0001 18.952 21.0001H7.23333C5.92654 21.0001 5.27315 21.0001 4.77402 20.7457C4.33497 20.5221 3.97802 20.1651 3.75432 19.7261C3.5 19.227 3.5 18.5735 3.5 17.2667V8.40008Z" stroke="#92949C" stroke-width="0.965517" stroke-linecap="round" stroke-linejoin="round"/>
</svg>
