<svg width="60" height="133" viewBox="0 0 60 133" fill="none" xmlns="http://www.w3.org/2000/svg">
<path d="M29.3961 0.362549L32.9384 7.01567C33.7348 8.24343 34.5975 9.33016 35.6137 10.3422C38.5931 13.2844 41.3701 16.4246 43.926 19.7412C49.9279 27.6221 53.9762 36.374 56.8672 45.8394C58.601 51.6215 59.5426 57.5529 59.6131 63.5506C59.9035 81.4817 53.7564 96.8785 41.3626 109.675C39.3467 111.704 37.1688 113.565 34.8505 115.241C33.6228 115.241 33.0421 114.299 32.536 113.432C31.6145 111.825 31.0012 110.06 30.7276 108.227C30.2921 106.058 30.0059 103.888 30.1469 101.648V100.636C30.0473 100.421 28.9648 0.872732 29.3961 0.362549Z" fill="#599636"/>
<path d="M29.396 0.142698C29.2508 -0.14765 29.1057 0.0721848 28.9605 0.213211C29.031 1.66495 28.525 2.95908 27.7327 4.19513C26.8617 5.42289 25.7086 6.36445 24.5513 7.37652C18.1222 12.9429 13.0618 19.6665 9.00941 27.1866C3.61723 37.3073 0.83818 48.1539 0.0500922 59.5728C-0.310769 63.6916 1.35251 78.2256 2.65078 82.4191C6.19303 93.5519 12.5558 102.88 20.7976 110.977C22.8217 112.926 24.9869 114.735 27.2267 116.473C27.8779 116.473 27.9484 115.892 28.0977 115.461C28.3832 114.538 28.6009 113.595 28.749 112.64L30.2007 101.798L29.396 0.142698Z" fill="#6CAC48"/>
<path d="M32.9384 119.646C33.0835 117.987 33.8799 116.61 34.7468 115.237C33.8758 114.876 33.2287 114.158 32.7227 113.358C32.2863 112.6 31.9251 111.801 31.6442 110.973C30.6322 107.937 30.4165 104.751 30.1261 101.649V99.7695C29.7653 100.06 29.6906 102.515 29.6906 102.88C29.4796 106.16 29.0444 109.42 28.3882 112.64C28.1725 113.943 28.0273 115.241 27.2268 116.398C27.2268 116.543 27.2268 116.689 27.2973 116.904C28.5997 120.737 28.9565 124.64 29.1763 128.618V130.069C29.1763 131.803 29.1058 131.438 30.5451 132.019C31.1258 132.235 31.7728 132.309 32.3535 132.741C32.7891 132.741 32.8596 132.38 32.8596 132.089L32.6439 129.704V123.051C32.5734 121.89 32.7891 120.737 32.9342 119.65L32.9384 119.646Z" fill="#C2BFBF"/>
</svg>
