<svg width="204" height="125" viewBox="0 0 204 125" fill="none" xmlns="http://www.w3.org/2000/svg">
<path d="M100.818 124.825C100.128 124.825 99.4825 124.641 98.8832 124.318L92.7551 120.678C91.8333 120.171 92.2942 119.987 92.5709 119.895C93.8148 119.48 94.0452 119.388 95.3354 118.651C95.4737 118.558 95.6583 118.605 95.7962 118.697L100.496 121.507C100.68 121.6 100.911 121.6 101.049 121.507L119.434 110.863C119.618 110.771 119.711 110.587 119.711 110.357V89.1149C119.711 88.8841 119.618 88.7003 119.434 88.6078L101.049 78.0101C100.865 77.9176 100.634 77.9176 100.496 78.0101L82.1111 88.6078C81.9269 88.6999 81.8344 88.9303 81.8344 89.1145V110.356C81.8344 110.541 81.9269 110.771 82.1111 110.863L87.1337 113.766C89.8523 115.148 91.5571 113.536 91.5571 111.923V90.9576C91.5571 90.6814 91.7875 90.4047 92.11 90.4047H94.4599C94.7365 90.4047 95.0128 90.6351 95.0128 90.9576V111.923C95.0128 115.563 93.0314 117.683 89.5756 117.683C88.5159 117.683 87.6867 117.683 85.3364 116.531L80.4984 113.766C79.3004 113.075 78.5632 111.785 78.5632 110.403V89.1608C78.5632 87.7786 79.3004 86.488 80.4984 85.7971L98.8832 75.1531C100.035 74.508 101.602 74.508 102.754 75.1531L121.139 85.7971C122.337 86.488 123.074 87.7786 123.074 89.1608V110.403C123.074 111.785 122.337 113.075 121.139 113.766L102.754 124.41C102.155 124.687 101.464 124.825 100.818 124.825ZM106.486 110.218C98.4228 110.218 96.7638 106.532 96.7638 103.399C96.7638 103.122 96.9943 102.846 97.3168 102.846H99.7129C99.9892 102.846 100.22 103.03 100.22 103.307C100.588 105.749 101.648 106.947 106.532 106.947C110.403 106.947 112.062 106.071 112.062 103.998C112.062 102.8 111.601 101.925 105.565 101.325C100.542 100.818 97.4089 99.7127 97.4089 95.7039C97.4089 91.9715 100.543 89.7596 105.795 89.7596C111.693 89.7596 114.596 91.7873 114.965 96.2103C114.965 96.349 114.919 96.487 114.827 96.6253C114.734 96.7174 114.596 96.8095 114.458 96.8095H112.062C111.831 96.8095 111.601 96.6253 111.555 96.3949C111.002 93.8608 109.573 93.0312 105.795 93.0312C101.556 93.0312 101.049 94.5059 101.049 95.6115C101.049 96.9478 101.648 97.3625 107.362 98.0996C113.029 98.8372 115.702 99.8969 115.702 103.859C115.656 107.914 112.338 110.218 106.486 110.218Z" fill="#539E43"/>
<path d="M43.774 41.7468C43.774 40.9176 43.3132 40.1338 42.576 39.7192L23.039 28.4763C22.7161 28.2917 22.3477 28.1996 21.9793 28.1534H21.7947C21.4263 28.1534 21.0576 28.2917 20.735 28.4763L1.19804 39.7192C0.460477 40.1338 0 40.9172 0 41.7468L0.0462471 71.9737C0.0462471 72.3883 0.276685 72.8029 0.645067 72.9875C1.01385 73.218 1.47432 73.218 1.79726 72.9875L13.4089 66.3523C14.146 65.9376 14.6069 65.1542 14.6069 64.325V50.179C14.6069 49.3497 15.0674 48.5663 15.8049 48.1517L20.735 45.2947C21.1038 45.0643 21.5184 44.9718 21.9331 44.9718C22.3477 44.9718 22.7623 45.0643 23.0853 45.2947L28.0154 48.1517C28.7529 48.5663 29.2134 49.3493 29.2134 50.179V64.325C29.2134 65.1542 29.6743 65.9376 30.4114 66.3523L42.023 72.9875C42.3918 73.218 42.8523 73.218 43.2211 72.9875C43.5898 72.8029 43.8203 72.3883 43.8203 71.9737L43.774 41.7468ZM137.681 0.138442C137.312 -0.0461474 136.851 -0.0461474 136.529 0.138442C136.16 0.36888 135.93 0.737262 135.93 1.15189V31.1028C135.93 31.3791 135.792 31.6554 135.515 31.84C135.239 31.978 134.962 31.978 134.686 31.84L129.802 29.0293C129.443 28.8254 129.039 28.7182 128.626 28.7182C128.214 28.7182 127.809 28.8254 127.451 29.0293L107.914 40.3184C107.177 40.733 106.716 41.5164 106.716 42.3457V64.8775C106.716 65.7068 107.177 66.4906 107.914 66.9052L127.451 78.1943C127.809 78.3982 128.214 78.5054 128.626 78.5054C129.039 78.5054 129.443 78.3982 129.802 78.1943L149.339 66.9052C150.076 66.4906 150.537 65.7072 150.537 64.8775V8.7089C150.537 7.8334 150.076 7.05038 149.339 6.63536L137.681 0.138442ZM135.884 57.4593C135.884 57.6897 135.792 57.8739 135.607 57.966L128.926 61.8364C128.833 61.8819 128.73 61.9056 128.626 61.9056C128.523 61.9056 128.42 61.8819 128.327 61.8364L121.646 57.966C121.461 57.8739 121.369 57.6435 121.369 57.4593V49.7181C121.369 49.4876 121.461 49.3035 121.646 49.2114L128.327 45.3406C128.42 45.295 128.523 45.2714 128.626 45.2714C128.73 45.2714 128.833 45.295 128.926 45.3406L135.607 49.2114C135.792 49.3031 135.884 49.5339 135.884 49.7181V57.4593ZM202.697 49.5339C203.434 49.1193 203.849 48.3359 203.849 47.5062V42.0231C203.849 41.1939 203.388 40.4105 202.697 39.9958L183.298 28.753C182.94 28.5492 182.535 28.442 182.123 28.442C181.711 28.442 181.306 28.5492 180.948 28.753L161.411 40.0417C160.673 40.4563 160.213 41.2397 160.213 42.0694V64.6013C160.213 65.4305 160.673 66.2139 161.411 66.6286L180.81 77.6872C181.547 78.1018 182.422 78.1018 183.114 77.6872L194.863 71.1448C195.232 70.9602 195.462 70.5456 195.462 70.131C195.462 69.7163 195.232 69.3017 194.863 69.1171L175.234 57.8281C174.866 57.598 174.635 57.2292 174.635 56.8146V49.7647C174.635 49.3501 174.866 48.9355 175.234 48.7509L181.363 45.2489C181.542 45.136 181.75 45.0761 181.962 45.0761C182.174 45.0761 182.381 45.136 182.561 45.2489L188.689 48.7509C189.058 48.9813 189.288 49.3497 189.288 49.7647V55.294C189.288 55.7087 189.518 56.1233 189.887 56.3075C190.256 56.5379 190.716 56.5379 191.085 56.3075L202.697 49.5339Z" fill="#333333"/>
<path d="M181.823 48.4742C181.892 48.4291 181.972 48.4052 182.054 48.4052C182.136 48.4052 182.216 48.4291 182.284 48.4742L186.016 50.6398C186.155 50.7315 186.247 50.8698 186.247 51.0544V55.3857C186.247 55.5699 186.155 55.7082 186.016 55.8003L182.284 57.966C182.216 58.011 182.136 58.035 182.054 58.035C181.972 58.035 181.892 58.011 181.823 57.966L178.091 55.8003C177.953 55.7082 177.861 55.5699 177.861 55.3857V51.0544C177.861 50.8698 177.953 50.7315 178.091 50.6398L181.823 48.4742Z" fill="#539E43"/>
<path d="M76.4434 28.845C76.0854 28.6412 75.6805 28.5341 75.2685 28.5341C74.8565 28.5341 74.4516 28.6412 74.0936 28.845L54.6949 40.0412C53.9574 40.4558 53.5427 41.2393 53.5427 42.0685V64.5087C53.5427 65.338 54.0036 66.1214 54.6949 66.536L74.0936 77.733C74.4516 77.9368 74.8565 78.0439 75.2685 78.0439C75.6805 78.0439 76.0854 77.9368 76.4434 77.733L95.8424 66.536C96.5796 66.1214 96.9946 65.338 96.9946 64.5087V42.0689C96.9946 41.2396 96.5334 40.4562 95.8424 40.0416L76.4434 28.845Z" fill="url(#paint0_linear_33_413)"/>
<defs>
<linearGradient id="paint0_linear_33_413" x1="3016.44" y1="894.313" x2="890.161" y2="4235.33" gradientUnits="userSpaceOnUse">
<stop stop-color="#41873F"/>
<stop offset="0.3288" stop-color="#418B3D"/>
<stop offset="0.6352" stop-color="#419637"/>
<stop offset="0.9319" stop-color="#3FA92D"/>
<stop offset="1" stop-color="#3FAE2A"/>
</linearGradient>
</defs>
</svg>
