<svg width="28" height="28" viewBox="0 0 28 28" fill="none" xmlns="http://www.w3.org/2000/svg">
<path d="M4.62502 7.22917C4.62502 16.1462 11.8538 23.375 20.7709 23.375C21.1731 23.375 21.572 23.3603 21.967 23.3314C22.4202 23.2981 22.6468 23.2816 22.8531 23.1628C23.024 23.0645 23.186 22.8901 23.2716 22.7125C23.375 22.4981 23.375 22.248 23.375 21.7479V18.8132C23.375 18.3926 23.375 18.1823 23.3058 18.0021C23.2447 17.8428 23.1453 17.701 23.0166 17.5892C22.8709 17.4625 22.6731 17.3906 22.2779 17.2469L18.9375 16.0322C18.4776 15.865 18.2476 15.7814 18.0295 15.7955C17.8371 15.808 17.652 15.8737 17.4947 15.9852C17.3164 16.1116 17.1905 16.3214 16.9388 16.741L16.0834 18.1667C13.323 16.9166 11.0853 14.6759 9.83336 11.9167L11.259 11.0613C11.6786 10.8095 11.8884 10.6836 12.0148 10.5053C12.1263 10.348 12.192 10.1629 12.2045 9.97052C12.2187 9.75236 12.135 9.52243 11.9678 9.06255L10.7531 5.72209C10.6094 5.32683 10.5375 5.1292 10.4109 4.98344C10.299 4.85468 10.1572 4.75536 9.99796 4.69422C9.81769 4.625 9.6074 4.625 9.18681 4.625H6.25212C5.75198 4.625 5.50191 4.625 5.2875 4.72839C5.10992 4.81402 4.93559 4.97605 4.83721 5.14691C4.71844 5.3532 4.70185 5.57981 4.66866 6.03305C4.63974 6.42798 4.62502 6.82685 4.62502 7.22917Z" stroke="#92949C" stroke-linecap="round" stroke-linejoin="round"/>
</svg>
