<svg width="154" height="138" viewBox="0 0 154 138" fill="none" xmlns="http://www.w3.org/2000/svg">
<path d="M77 102.451C33.813 102.451 0 87.695 0 68.9144C0 50.1338 33.813 35.3777 77 35.3777C120.187 35.3777 154 50.1338 154 68.9144C154 87.695 120.187 102.451 77 102.451ZM77 42.085C34.8174 42.085 6.69565 55.8351 6.69565 68.9144C6.69565 81.9937 34.8174 95.7438 77 95.7438C119.183 95.7438 147.304 81.9937 147.304 68.9144C147.304 55.8351 119.183 42.085 77 42.085Z" fill="#80DEEA"/>
<path d="M47.2042 138C43.8564 138 41.1782 137.329 38.4999 135.652C22.0955 126.262 26.4477 89.7072 47.8738 52.146C57.9173 34.7069 70.3042 19.9507 82.3564 10.5605C95.4129 0.499442 107.13 -2.51886 115.165 2.17628C123.535 6.87142 126.548 18.6093 124.539 35.0423C122.53 50.4692 115.835 68.579 105.791 86.0181C95.7477 103.457 83.3608 118.213 71.3086 127.604C62.6042 134.311 54.2347 138 47.2042 138ZM106.796 6.53606C101.439 6.53606 94.4086 9.55436 86.7086 15.591C75.326 24.6459 63.6086 38.7313 53.8999 55.4997C32.8086 92.0547 30.7999 123.579 41.8477 129.951C47.539 133.305 56.9129 130.287 67.2912 122.238C78.6738 113.183 90.3912 99.0974 100.1 82.3291C109.809 65.5607 116.169 48.457 118.178 34.0362C119.852 20.6215 117.843 11.2312 112.152 7.87752C110.478 7.20679 108.804 6.53606 106.796 6.53606Z" fill="#80DEEA"/>
<path d="M107.13 138C90.3913 138 66.287 117.543 48.2087 85.6827C26.4478 48.1215 22.0957 11.5665 38.5 2.17619C54.9044 -7.21409 84.3652 14.5848 106.126 52.1459C116.17 69.585 122.865 87.6949 124.874 103.122C127.217 119.555 123.87 130.957 115.5 135.988C112.822 137.329 110.143 138 107.13 138ZM41.8478 7.87744C30.8 14.2494 32.8087 45.7739 53.9 82.329C74.9913 118.884 101.104 136.323 112.152 129.951C117.843 126.597 119.852 117.207 118.178 103.793C116.17 89.3717 109.809 72.268 100.1 55.4996C79.0087 18.9446 52.8957 1.50546 41.8478 7.87744Z" fill="#80DEEA"/>
<path d="M76.9999 82.329C84.3958 82.329 90.3913 76.3231 90.3913 68.9143C90.3913 61.5056 84.3958 55.4996 76.9999 55.4996C69.6041 55.4996 63.6086 61.5056 63.6086 68.9143C63.6086 76.3231 69.6041 82.329 76.9999 82.329Z" fill="#80DEEA"/>
</svg>
