<svg width="144" height="144" viewBox="0 0 144 144" fill="none" xmlns="http://www.w3.org/2000/svg">
<path d="M134.476 27.657L75.3381 133.406C74.1168 135.589 70.9803 135.602 69.7406 133.429L9.43024 27.6669C8.08024 25.299 10.1043 22.4311 12.7872 22.9104L71.9892 33.4926C72.3669 33.5601 72.7535 33.5595 73.1309 33.4908L131.094 22.9257C133.768 22.4383 135.803 25.2846 134.476 27.657Z" fill="url(#paint0_linear_33_427)"/>
<path d="M100.19 9.03107L56.426 17.6063C56.0762 17.6747 55.7592 17.8575 55.5247 18.1258C55.2901 18.3941 55.1515 18.7328 55.1304 19.0886L52.4385 64.5557C52.3755 65.6267 53.3588 66.4578 54.4037 66.2166L66.5883 63.405C67.7286 63.1418 68.7587 64.1462 68.5242 65.2923L64.9044 83.0192C64.6605 84.2117 65.7806 85.2323 66.9456 84.8786L74.4714 82.5917C75.6383 82.2375 76.7592 83.2608 76.5126 84.4547L70.7598 112.299C70.3998 114.041 72.7164 114.99 73.6826 113.497L74.3279 112.5L109.989 41.3316C110.586 40.14 109.557 38.7815 108.248 39.0339L95.706 41.4545C94.527 41.6817 93.5244 40.5842 93.857 39.4308L102.043 11.0538C102.376 9.89822 101.37 8.79977 100.19 9.03107Z" fill="url(#paint1_linear_33_427)"/>
<defs>
<linearGradient id="paint0_linear_33_427" x1="7.95755" y1="19.1306" x2="81.5558" y2="119.083" gradientUnits="userSpaceOnUse">
<stop stop-color="#41D1FF"/>
<stop offset="1" stop-color="#BD34FE"/>
</linearGradient>
<linearGradient id="paint1_linear_33_427" x1="68.588" y1="11.3589" x2="81.9016" y2="102.689" gradientUnits="userSpaceOnUse">
<stop stop-color="#FFEA83"/>
<stop offset="0.0833" stop-color="#FFDD35"/>
<stop offset="1" stop-color="#FFA800"/>
</linearGradient>
</defs>
</svg>
