<svg width="117" height="116" viewBox="0 0 117 116" fill="none" xmlns="http://www.w3.org/2000/svg">
<path d="M1.10776 40.1676C1.10776 40.1676 -1.72811 38.1234 1.67494 35.3939L9.60358 28.3042C9.60358 28.3042 11.8723 25.9173 14.271 27.997L87.4366 83.3911V109.954C87.4366 109.954 87.4011 114.125 82.0484 113.664L1.10776 40.1676Z" fill="#2489CA"/>
<path d="M19.9666 57.2893L1.10803 74.4345C1.10803 74.4345 -0.829818 75.8761 1.10803 78.452L9.8638 86.4161C9.8638 86.4161 11.9434 88.6494 15.0156 86.1089L35.0086 70.9488L19.9666 57.2893Z" fill="#1070B3"/>
<path d="M53.0751 57.431L87.661 31.0219L87.4365 4.601C87.4365 4.601 85.9594 -1.16529 81.0321 1.83602L35.0082 43.7243L53.0751 57.431Z" fill="#0877B9"/>
<path d="M82.0485 113.7C84.0573 115.756 86.4914 115.082 86.4914 115.082L113.444 101.801C116.894 99.4493 116.41 96.5307 116.41 96.5307V17.2207C116.41 13.7349 112.841 12.5297 112.841 12.5297L89.4809 1.26887C84.3763 -1.88605 81.0323 1.83604 81.0323 1.83604C81.0323 1.83604 85.3334 -1.25979 87.4367 4.60102V109.469C87.4367 110.19 87.2831 110.899 86.9759 111.537C86.3614 112.778 85.0262 113.936 81.824 113.451L82.0485 113.7Z" fill="#3C99D4"/>
</svg>
