<svg width="123" height="139" viewBox="0 0 123 139" fill="none" xmlns="http://www.w3.org/2000/svg">
<path d="M119.216 106.729L63.9257 138.475V113.749L98.3747 94.5135L119.216 106.729ZM122.998 103.252V36.8604L102.765 48.7132V91.3858L122.998 103.252ZM3.78212 106.729L59.0724 138.475V113.749L24.6234 94.5135L3.78212 106.729ZM0 103.252V36.8604L20.233 48.7132V91.3858L0 103.252ZM2.36713 32.5649L59.0724 0V23.9069L22.7456 44.1895L22.4679 44.3506L2.36713 32.5649ZM120.631 32.5649L63.9257 0V23.9069L100.253 44.1895L100.53 44.3506L120.631 32.5649Z" fill="#8ED6FB"/>
<path d="M58.2146 108.336L23.6222 89.398V51.8703L58.2146 71.76V108.336ZM63.1545 108.336L97.7469 89.398V51.8703L63.1545 71.76V108.336ZM25.9643 47.5279L60.6913 28.5094L95.4183 47.5279L60.6913 67.4979L25.9643 47.5279Z" fill="#1C78C0"/>
</svg>
