<svg width="70" height="64" viewBox="0 0 70 64" fill="none" xmlns="http://www.w3.org/2000/svg">
<rect width="70" height="64" rx="10" fill="white"/>
<rect x="10" y="10" width="50" height="46" rx="10" fill="#222222"/>
<path d="M35.2421 42.0597C23.8494 42.0597 14.9296 38.0632 14.9296 32.9768C14.9296 27.8904 23.8494 23.8939 35.2421 23.8939C46.6347 23.8939 55.5546 27.8904 55.5546 32.9768C55.5546 38.0632 46.6347 42.0597 35.2421 42.0597ZM35.2421 25.7105C24.1144 25.7105 16.6959 29.4345 16.6959 32.9768C16.6959 36.5191 24.1144 40.2431 35.2421 40.2431C46.3698 40.2431 53.7883 36.5191 53.7883 32.9768C53.7883 29.4345 46.3698 25.7105 35.2421 25.7105Z" fill="#80DEEA"/>
<path d="M27.382 51.6875C26.4989 51.6875 25.7923 51.5059 25.0858 51.0517C20.7584 48.5085 21.9065 38.6082 27.5586 28.4354C30.2081 23.7123 33.4758 19.7158 36.6551 17.1726C40.0994 14.4478 43.1904 13.6303 45.31 14.9019C47.5179 16.1735 48.3127 19.3525 47.7828 23.8031C47.2529 27.9812 45.4866 32.886 42.8372 37.6091C40.1877 42.3322 36.92 46.3286 33.7407 48.8718C31.4445 50.6884 29.2366 51.6875 27.382 51.6875ZM43.1021 16.0827C41.6891 16.0827 39.8344 16.9001 37.8032 18.535C34.8005 20.9874 31.7095 24.8022 29.1483 29.3437C23.5845 39.244 23.0546 47.7819 25.969 49.5076C27.4703 50.4159 29.9431 49.5985 32.6809 47.4186C35.6836 44.9662 38.7747 41.1514 41.3358 36.61C43.897 32.0685 45.5749 27.4363 46.1048 23.5306C46.5464 19.8975 46.0165 17.3543 44.5152 16.446C44.0736 16.2643 43.632 16.0827 43.1021 16.0827Z" fill="#80DEEA"/>
<path d="M43.1905 51.6875C38.7747 51.6875 32.416 46.1469 27.647 37.5182C21.9065 27.3454 20.7584 17.4451 25.0858 14.9019C29.4133 12.3587 37.185 18.2625 42.9255 28.4354C45.575 33.1584 47.3413 38.0632 47.8712 42.2413C48.4894 46.6919 47.6062 49.7801 45.3983 51.1425C44.6918 51.5058 43.9853 51.6875 43.1905 51.6875ZM25.969 16.446C23.0546 18.1717 23.5845 26.7096 29.1483 36.6099C34.7122 46.5103 41.6008 51.2333 44.5152 49.5076C46.0165 48.5993 46.5464 46.0561 46.1049 42.423C45.575 38.5173 43.897 33.8851 41.3358 29.3436C35.772 19.4433 28.8834 14.7202 25.969 16.446Z" fill="#80DEEA"/>
<path d="M35.2421 36.6099C37.1931 36.6099 38.7747 34.9833 38.7747 32.9768C38.7747 30.9702 37.1931 29.3436 35.2421 29.3436C33.291 29.3436 31.7094 30.9702 31.7094 32.9768C31.7094 34.9833 33.291 36.6099 35.2421 36.6099Z" fill="#80DEEA"/>
</svg>
