<svg width="70" height="64" viewBox="0 0 70 64" fill="none" xmlns="http://www.w3.org/2000/svg">
<rect width="70" height="64" rx="10" fill="white"/>
<path d="M43.8731 40.3325C45.5706 40.1635 46.8585 38.756 46.7999 37.0669C46.7415 35.378 45.2779 34.0268 43.5219 34.0268H43.4049C41.59 34.0831 40.1852 35.5469 40.2438 37.2921C40.3024 38.1367 40.6535 38.8685 41.1803 39.3752C39.1901 43.1475 36.1462 45.9061 31.5804 48.2144C28.4779 49.7908 25.2584 50.3539 22.039 49.9598C19.4047 49.622 17.3559 48.4961 16.0679 46.638C14.1949 43.8793 14.0193 40.8953 15.5999 37.9115C16.7121 35.772 18.468 34.1956 19.5803 33.4074C19.3462 32.6755 18.9949 31.437 18.8193 30.5363C10.3314 36.4477 11.2096 44.4424 13.7852 48.2144C15.7168 51.0296 19.6389 52.7748 23.9706 52.7748C25.1413 52.7748 26.3119 52.6621 27.4828 52.3808C34.9756 50.9732 40.6537 46.6943 43.8731 40.3325ZM54.1757 33.3512C49.7268 28.3405 43.1707 25.5818 35.678 25.5818H34.7414C34.2146 24.5684 33.1023 23.8927 31.8731 23.8927H31.7559C29.9414 23.9491 28.5366 25.4128 28.595 27.1582C28.6536 28.8472 30.117 30.1984 31.8731 30.1984H31.9901C33.2779 30.1421 34.3901 29.3539 34.8584 28.2841H35.9121C40.361 28.2841 44.5755 29.5227 48.3806 31.9437C51.3074 33.8016 53.4147 36.2226 54.5854 39.1501C55.5805 41.5147 55.5219 43.823 54.4682 45.7936C52.8293 48.7774 50.0781 50.4102 46.4488 50.4102C44.1073 50.4102 41.8829 49.7345 40.7121 49.2278C40.0683 49.7908 38.8974 50.6915 38.0779 51.2547C40.5951 52.3806 43.1707 53 45.6292 53C51.2488 53 55.4049 50.016 56.9855 47.0322C58.683 43.7667 58.5658 38.1367 54.1757 33.3512ZM24.4389 41.2893C24.4974 42.9784 25.9608 44.3295 27.7169 44.3295H27.8341C29.6487 44.2733 31.0535 42.8094 30.9949 41.0642C30.9365 39.3751 29.473 38.024 27.7169 38.024H27.5999C27.4828 38.024 27.307 38.024 27.1902 38.0802C24.7902 34.2518 23.795 30.0857 24.1463 25.5816C24.3803 22.2036 25.5511 19.276 27.5999 16.855C29.2974 14.7719 32.5755 13.7585 34.8 13.7023C41.0048 13.5896 43.6388 21.0212 43.8146 24.0052C44.5755 24.1741 45.8634 24.5682 46.7415 24.8498C46.0389 15.7293 40.1852 11 34.5659 11C29.2974 11 24.4389 14.6595 22.507 20.0643C19.8144 27.2707 21.5705 34.1956 24.8486 39.6568C24.556 40.0508 24.3803 40.67 24.4389 41.2893Z" fill="#764ABC"/>
</svg>
